 <svg  version="1.0" xmlns="http://www.w3.org/2000/svg"  width="600.000000pt" height="600.000000pt" viewBox="0 0 600.000000 600.000000"  preserveAspectRatio="xMidYMid meet">  <g transform="translate(0.000000,600.000000) scale(0.100000,-0.100000)" fill="#18174f" stroke="none"> <path d="M2635 5889 c-16 -5 -64 -14 -105 -19 -41 -5 -95 -14 -120 -20 -25 -6 -65 -16 -90 -22 -25 -6 -61 -14 -80 -19 -80 -19 -200 -58 -320 -104 -57 -22 -111 -45 -130 -57 -8 -4 -22 -11 -30 -14 -25 -9 -151 -74 -211 -107 -134 -75 -191 -114 -399 -273 -83 -63 -334 -310 -394 -389 -26 -33 -52 -67 -59 -75 -60 -68 -191 -262 -245 -360 -49 -89 -132 -254 -132 -262 0 -4 -11 -31 -25 -60 -26 -57 -52 -125 -64 -173 -5 -16 -13 -41 -19 -55 -5 -14 -18 -52 -27 -85 -9 -33 -23 -80 -31 -105 -8 -25 -14 -59 -14 -76 0 -17 -7 -51 -15 -74 -8 -23 -15 -59 -15 -79 0 -20 -7 -68 -15 -106 -21 -99 -21 -643 0 -730 8 -33 14 -81 15 -106 0 -26 7 -66 15 -89 8 -23 15 -59 15 -79 1 -20 7 -47 15 -61 8 -14 14 -38 15 -53 0 -16 5 -38 12 -50 6 -12 15 -38 19 -57 4 -19 13 -51 19 -70 34 -94 43 -117 56 -143 8 -16 14 -33 14 -38 0 -5 19 -48 41 -96 23 -49 45 -97 50 -108 5 -11 25 -47 44 -80 19 -33 39 -69 45 -80 6 -11 18 -32 28 -47 9 -14 30 -48 46 -75 16 -26 38 -59 50 -73 12 -14 37 -49 56 -77 19 -29 38 -53 42 -53 4 0 14 -12 22 -27 24 -44 188 -218 332 -352 107 -100 348 -281 373 -281 5 0 11 -7 15 -15 3 -8 10 -15 15 -15 5 0 42 -19 83 -43 68 -40 233 -123 303 -153 17 -7 46 -20 67 -28 20 -9 42 -16 50 -16 7 0 22 -7 32 -15 11 -8 28 -15 38 -15 9 0 32 -6 50 -14 58 -24 132 -46 158 -46 14 -1 34 -7 44 -15 11 -8 36 -15 55 -15 20 0 58 -7 85 -15 27 -8 64 -15 82 -15 18 0 57 -6 86 -14 118 -30 719 -29 858 3 62 14 156 32 210 40 25 4 55 13 67 19 12 7 34 12 50 12 15 0 41 7 57 15 15 8 38 15 50 15 12 0 31 7 42 15 10 8 28 15 40 15 11 0 29 7 40 15 10 8 27 15 36 15 19 0 61 17 153 61 33 16 65 29 71 29 6 0 17 7 24 15 7 8 18 15 24 15 29 0 389 220 426 260 3 3 34 28 70 55 95 72 113 88 240 216 135 135 183 188 230 249 18 25 39 50 46 56 13 11 154 217 167 244 4 8 16 29 27 45 10 17 49 91 86 165 78 157 100 206 139 310 9 25 23 60 31 78 8 18 14 44 14 57 0 13 4 26 9 30 6 3 13 27 17 53 4 25 13 61 20 79 8 18 14 48 14 67 0 19 4 37 9 41 5 3 12 31 16 63 3 31 13 91 22 132 24 108 25 699 1 810 -9 41 -21 104 -28 140 -23 136 -27 156 -38 190 -6 19 -19 62 -27 95 -9 33 -22 74 -29 90 -8 17 -17 45 -20 62 -4 18 -12 35 -17 38 -5 4 -9 15 -9 27 0 11 -6 32 -13 46 -8 15 -21 43 -29 62 -25 59 -50 114 -59 130 -4 8 -18 35 -30 60 -51 101 -206 348 -261 415 -9 11 -42 52 -73 90 -97 119 -312 333 -420 418 -33 26 -85 67 -115 91 -30 25 -58 45 -62 46 -4 0 -35 19 -70 43 -35 24 -70 46 -78 50 -8 4 -31 17 -50 29 -62 38 -280 148 -294 148 -8 0 -19 7 -26 15 -7 8 -22 15 -34 15 -11 0 -30 7 -40 15 -11 8 -28 15 -37 15 -10 0 -30 6 -46 14 -37 18 -90 36 -133 45 -19 4 -45 13 -57 19 -12 7 -35 12 -51 12 -16 0 -43 7 -58 15 -16 8 -42 15 -59 15 -16 0 -52 7 -79 15 -27 8 -68 15 -90 15 -23 0 -66 7 -96 15 -43 12 -123 15 -375 14 -176 0 -333 -5 -350 -10z m568 -124 c-8 -62 -16 -94 -24 -89 -5 3 -9 18 -9 33 0 15 -5 32 -11 38 -18 18 -2 45 23 41 16 -2 22 -9 21 -23z m-557 0 c3 -8 14 -17 25 -20 28 -9 25 -64 -5 -92 -29 -28 -84 -31 -93 -5 -4 9 -12 21 -20 25 -22 14 -14 47 19 78 35 32 65 38 74 14z m164 5 c23 -7 23 -8 4 -9 -34 -2 -38 -30 -8 -41 l26 -10 -25 -20 c-42 -33 -57 -22 -57 44 0 47 8 53 60 36z m575 -5 c0 -5 -15 -11 -32 -13 -39 -4 -45 -29 -8 -34 35 -4 36 -22 3 -26 -39 -5 -37 -32 2 -32 20 0 30 -5 30 -15 0 -22 -76 -21 -84 1 -11 28 -6 110 6 122 15 15 83 12 83 -3z m175 -30 c0 -10 -10 -15 -28 -15 -38 0 -56 -35 -34 -67 8 -13 23 -23 33 -23 11 0 19 -7 19 -15 0 -25 -46 -18 -69 11 -25 32 -26 43 -7 89 13 31 19 35 50 35 25 0 36 -4 36 -15z m120 -49 c0 -31 46 -43 55 -15 4 11 10 19 15 19 16 0 22 -21 9 -36 -7 -8 -15 -31 -18 -51 -8 -45 -25 -49 -29 -5 -3 26 -7 32 -27 32 -14 0 -29 -9 -35 -20 -6 -11 -15 -20 -20 -20 -15 0 -11 32 5 54 8 11 15 29 15 41 0 12 3 25 6 28 12 11 24 -3 24 -27z m-1440 -11 c0 -8 -6 -15 -14 -15 -28 0 -27 -20 1 -31 l28 -11 -22 -15 c-30 -20 -29 -33 3 -33 31 0 28 -24 -5 -28 -32 -5 -51 15 -51 54 0 18 -4 36 -10 39 -14 9 -12 21 6 39 20 21 64 21 64 1z m1632 -42 c10 -9 18 -27 18 -40 0 -34 -47 -33 -56 2 -6 26 0 55 12 55 4 0 16 -7 26 -17z m-1807 -30 c-9 -38 -11 -39 -39 -12 -29 28 -25 39 16 39 28 0 30 -2 23 -27z m1885 -17 c0 -36 -24 -70 -44 -63 -15 5 -21 47 -6 47 6 0 15 11 20 25 14 36 30 31 30 -9z m-2010 -41 c0 -12 7 -25 15 -29 27 -10 17 -45 -18 -62 -42 -20 -87 -6 -87 29 0 13 -5 28 -12 35 -15 15 -3 16 23 2 10 -6 19 -19 19 -30 0 -25 15 -33 40 -20 23 13 27 45 5 54 -15 5 -21 37 -9 49 12 11 24 -3 24 -28z m1890 10 c0 -8 -4 -15 -9 -15 -13 0 -22 16 -14 24 11 11 23 6 23 -9z m250 4 c0 -6 -9 -13 -20 -16 -27 -7 -27 -54 0 -71 17 -10 25 -10 45 5 30 22 32 49 5 58 -11 3 -20 13 -20 21 0 23 33 16 53 -12 16 -22 17 -28 5 -55 -7 -16 -26 -36 -41 -44 -25 -13 -32 -12 -55 3 -15 9 -30 21 -34 27 -13 18 -9 58 9 77 18 20 53 25 53 7z m-1992 -27 c2 -15 -2 -22 -12 -22 -11 0 -16 9 -16 26 0 31 23 28 28 -4z m-328 -35 c0 -7 -5 -18 -11 -24 -8 -8 -8 -13 0 -17 6 -4 11 -17 11 -30 0 -12 5 -27 11 -33 6 -6 9 -17 6 -25 -3 -9 -7 -7 -13 7 -4 11 -13 24 -21 28 -7 4 -13 15 -13 23 0 8 -12 19 -27 25 l-28 11 30 24 c33 26 55 31 55 11z m2490 -28 c0 -11 -7 -22 -15 -25 -24 -10 -18 -43 11 -54 14 -6 22 -14 19 -20 -9 -14 -48 -13 -63 2 -17 17 -15 57 3 64 8 4 15 16 15 28 0 13 3 26 6 29 11 11 24 -3 24 -24z m-2610 -97 c0 -8 8 -24 17 -34 12 -14 14 -21 5 -30 -8 -8 -13 -7 -18 8 -4 10 -13 23 -21 27 -7 4 -13 17 -13 27 0 10 -4 22 -10 25 -5 3 -10 11 -10 16 0 5 11 2 25 -7 14 -9 25 -23 25 -32z m2821 16 c35 -39 35 -41 8 -84 -25 -42 -68 -46 -105 -11 -29 27 -33 84 -6 94 9 4 21 12 25 20 14 22 47 14 78 -19z m-1121 -3 c10 -12 10 -18 0 -30 -25 -30 -61 -7 -46 30 3 8 12 15 19 15 8 0 20 -7 27 -15z m-1804 -108 c19 -11 18 -37 -1 -37 -8 0 -15 9 -15 20 0 11 -5 20 -10 20 -6 0 -15 11 -20 25 -5 14 -14 25 -20 25 -19 0 -10 27 13 37 21 10 23 7 31 -36 5 -25 15 -50 22 -54z m1662 27 c39 -33 42 -68 6 -100 -35 -33 -66 -30 -98 8 -14 17 -26 37 -26 42 1 21 58 74 81 76 3 0 20 -12 37 -26z m1430 -16 c21 -21 13 -27 -30 -25 l-43 2 0 -37 c0 -40 18 -54 23 -18 4 25 28 27 34 2 7 -26 -9 -62 -28 -62 -51 0 -83 89 -46 129 19 22 72 27 90 9z m-3262 -33 c4 -8 14 -15 24 -15 25 0 42 -24 38 -57 -2 -18 -10 -29 -21 -31 -16 -3 -18 1 -12 27 6 30 6 31 -29 31 -41 0 -51 12 -36 40 13 24 28 26 36 5z m3364 -80 c0 -21 5 -25 30 -25 20 0 30 -5 30 -15 0 -9 -9 -15 -25 -15 -14 0 -28 -7 -31 -15 -4 -8 -12 -15 -20 -15 -10 0 -14 14 -14 48 0 27 3 52 7 55 13 14 23 6 23 -18z m-3452 -31 c18 -20 32 -40 32 -45 0 -5 -21 -9 -46 -9 -46 0 -46 0 -40 -30 4 -22 2 -30 -9 -30 -8 0 -15 4 -15 9 0 5 -11 23 -25 39 -13 16 -22 32 -18 36 3 3 26 6 50 6 31 0 43 4 43 14 0 8 -4 18 -10 21 -12 7 -13 25 -2 25 5 0 23 -16 40 -36z m-178 -109 c5 -14 13 -25 17 -25 14 -1 44 -50 37 -61 -9 -14 -84 70 -84 94 0 25 19 21 30 -8z m2415 -175 c-3 -5 -13 -10 -21 -10 -8 0 -14 5 -14 10 0 6 9 10 21 10 11 0 17 -4 14 -10z m-2655 -69 c0 -16 7 -34 15 -41 22 -18 19 -50 -4 -50 -10 0 -24 6 -31 14 -6 8 -24 16 -38 18 -34 4 -31 22 3 26 20 3 25 9 25 33 0 19 5 29 15 29 10 0 15 -10 15 -29z m485 -1 c27 -10 47 -36 69 -87 16 -36 17 -47 6 -73 -27 -65 -85 -110 -143 -110 -30 0 -84 37 -107 75 -41 66 -2 172 73 198 40 15 56 14 102 -3z m3847 -17 c25 -22 24 -69 -3 -83 -15 -8 -24 -8 -34 0 -8 6 -23 9 -35 5 -31 -10 -38 22 -10 42 13 9 30 24 39 35 19 22 20 22 43 1z m-4386 -174 c3 -6 -3 -13 -15 -16 -12 -3 -21 -12 -21 -19 0 -8 -10 -14 -25 -14 -16 0 -25 -6 -25 -15 0 -8 5 -15 10 -15 6 0 10 -7 10 -15 0 -23 -16 -18 -56 19 -40 37 -39 62 2 52 14 -4 33 -2 44 4 20 11 20 11 -1 39 -33 45 -14 57 32 21 21 -18 41 -36 45 -41z m4474 35 c0 -4 -12 -17 -26 -31 -14 -13 -24 -29 -21 -36 6 -19 56 -21 63 -3 7 18 34 22 34 5 0 -22 -45 -48 -82 -49 -38 0 -38 0 -38 40 0 44 24 80 52 80 10 0 18 -3 18 -6z m114 -188 c-6 -42 -5 -45 20 -48 32 -4 39 -21 11 -26 -11 -3 -24 -10 -28 -18 -17 -29 -36 -15 -39 29 -3 37 -6 42 -25 40 -32 -4 -30 25 2 37 14 5 25 14 25 20 0 5 9 10 20 10 17 0 19 -5 14 -44z m-4744 -7 c42 -22 45 -39 5 -39 -30 0 -39 -14 -20 -30 19 -16 19 -30 0 -30 -8 0 -15 4 -15 8 0 5 -11 14 -25 20 -31 14 -32 30 -2 34 12 2 21 7 20 13 -3 16 -20 17 -36 0 -31 -31 -61 -7 -31 26 22 25 54 24 104 -2z m1915 -119 c8 -13 -15 -13 -35 0 -12 8 -11 10 7 10 12 0 25 -4 28 -10z m-135 -21 c8 -1 -1 -5 -20 -9 -37 -9 -54 -5 -44 12 3 5 16 7 28 4 11 -3 28 -6 36 -7z m1104 -20 c35 -41 33 -61 -8 -93 -44 -33 -55 -33 -89 3 -34 37 -34 57 0 93 35 36 65 36 97 -3z m2001 10 c8 -25 -1 -37 -17 -21 -16 16 -38 15 -38 -2 0 -8 -9 -18 -20 -21 -15 -5 -19 -12 -14 -31 4 -17 2 -24 -9 -24 -8 0 -17 13 -21 33 -6 28 -2 35 26 59 40 34 84 37 93 7z m-5030 1 c3 -5 24 -10 45 -10 45 0 59 -14 30 -30 -11 -6 -20 -19 -20 -30 0 -10 -4 -21 -10 -25 -10 -6 -50 24 -50 39 0 5 -7 14 -17 21 -9 7 -14 19 -10 29 7 18 23 21 32 6z m1980 -21 c7 -19 12 -21 61 -16 39 4 56 2 65 -9 13 -16 7 -19 -60 -28 -30 -5 -50 -2 -66 8 -20 13 -24 12 -49 -11 -16 -15 -25 -31 -22 -40 4 -8 9 -26 12 -40 6 -22 10 -24 40 -19 18 4 35 2 39 -4 3 -5 13 -10 21 -10 13 0 14 8 9 38 -4 29 -2 42 9 51 13 11 17 10 22 -5 4 -11 16 -29 26 -41 11 -11 21 -38 23 -60 1 -21 0 -26 -2 -10 -4 23 -9 27 -36 27 -24 0 -35 -6 -43 -24 -14 -31 -2 -45 41 -48 19 -1 13 -3 -20 -7 -55 -7 -75 1 -75 30 0 17 -8 19 -64 19 -63 0 -100 15 -54 22 19 2 24 10 26 41 3 32 0 37 -17 37 -12 0 -21 4 -21 9 0 25 15 41 37 41 25 0 62 34 63 58 0 20 28 13 35 -9z m3025 -34 c0 -8 -7 -15 -15 -15 -8 0 -15 7 -15 15 0 8 7 15 15 15 8 0 15 -7 15 -15z m-2855 -45 c-5 -8 -11 -8 -17 -2 -6 6 -7 16 -3 22 5 8 11 8 17 2 6 -6 7 -16 3 -22z m-1837 -32 c15 -15 -3 -48 -27 -48 -23 0 -35 28 -20 46 14 17 31 18 47 2z m1512 -23 c0 -16 -6 -25 -15 -25 -15 0 -21 31 -8 43 13 14 23 6 23 -18z m80 -109 c0 -8 14 -17 30 -21 17 -4 28 -11 24 -16 -8 -14 -29 -11 -52 10 -23 19 -29 41 -12 41 6 0 10 -6 10 -14z m-1288 -38 c3 -7 -1 -33 -8 -58 -42 -153 -53 -230 -34 -230 6 0 27 7 48 16 178 76 430 105 590 69 226 -52 337 -109 467 -239 116 -117 172 -218 216 -396 44 -177 7 -403 -93 -575 -110 -186 -262 -298 -513 -378 -103 -32 -410 -31 -535 4 -154 42 -332 153 -418 262 -108 136 -150 232 -178 401 -15 94 -16 118 -5 194 23 157 27 177 38 197 6 11 19 40 29 65 10 25 31 64 46 86 33 50 35 74 8 81 -15 4 -20 14 -20 37 l0 31 -25 -30 c-29 -35 -31 -45 -9 -45 13 0 15 -7 9 -37 -10 -56 -45 -74 -45 -24 0 16 -7 34 -15 41 -8 7 -15 26 -15 42 0 43 -27 76 -68 84 -20 4 -56 16 -81 27 l-45 20 28 22 c16 13 60 39 100 59 39 21 85 46 101 56 17 10 50 29 75 41 25 13 78 42 118 66 41 24 77 43 82 43 4 0 13 7 20 15 7 8 21 15 30 15 10 0 20 4 22 8 3 8 55 39 70 41 3 1 8 -5 10 -11z m2293 -199 c33 -6 85 -14 115 -19 67 -10 135 -28 175 -45 120 -51 125 -55 125 -79 0 -13 -6 -37 -14 -53 -23 -45 -46 -100 -46 -111 0 -6 -6 -23 -14 -39 -15 -30 -37 -81 -55 -125 -7 -20 -18 -28 -35 -28 -14 0 -27 4 -30 9 -3 5 -38 19 -78 31 -40 13 -86 28 -103 35 -39 16 -208 27 -289 19 -69 -7 -116 -37 -116 -74 0 -49 84 -100 190 -114 57 -8 142 -28 183 -42 20 -8 52 -14 70 -14 17 0 41 -7 51 -15 11 -8 26 -15 35 -15 31 0 159 -72 207 -117 72 -67 98 -115 114 -205 25 -152 -13 -296 -105 -395 -24 -26 -45 -51 -45 -55 0 -5 9 -17 21 -29 27 -27 39 -70 32 -117 -16 -104 -151 -146 -223 -69 -17 18 -30 37 -30 42 0 6 15 20 33 33 l32 23 -55 -6 c-30 -4 -77 -13 -105 -20 -152 -42 -589 -21 -718 33 -16 7 -34 12 -41 12 -30 0 -171 70 -180 89 -6 15 -1 36 23 83 17 35 31 67 31 71 0 16 92 196 105 207 12 10 29 6 88 -20 157 -70 320 -105 458 -97 125 7 154 22 154 83 0 37 -2 40 -55 66 -30 15 -65 27 -78 27 -13 1 -32 6 -42 11 -10 6 -45 14 -77 20 -301 49 -474 142 -553 296 -34 68 -35 71 -35 194 0 117 2 128 28 177 28 55 34 87 17 98 -5 3 -10 15 -10 25 0 16 7 19 40 17 26 -1 44 4 52 15 7 9 42 36 78 60 96 64 163 93 255 109 28 5 64 13 80 18 42 13 268 13 340 0z m1525 -8 c143 -29 219 -50 283 -81 36 -17 69 -36 73 -41 3 -6 -1 -26 -10 -45 -20 -40 -38 -83 -62 -144 -49 -126 -79 -180 -100 -180 -12 0 -27 7 -34 15 -7 8 -21 15 -31 15 -10 0 -33 6 -51 14 -92 40 -153 50 -294 51 -137 0 -142 -1 -167 -25 -51 -48 -29 -108 49 -139 43 -17 100 -11 96 10 -1 10 14 24 42 38 43 21 47 21 83 6 52 -22 82 -52 89 -91 5 -27 12 -34 38 -39 17 -3 40 -10 51 -15 11 -5 53 -23 93 -39 131 -55 198 -113 247 -217 26 -54 28 -67 27 -181 0 -95 -4 -127 -16 -145 -9 -12 -16 -30 -16 -40 0 -25 -57 -107 -108 -156 -104 -99 -249 -157 -430 -172 -129 -11 -180 -19 -188 -31 -9 -16 -39 -10 -52 11 -10 17 -23 20 -90 20 -44 0 -101 7 -128 15 -27 8 -61 15 -75 15 -15 0 -40 7 -55 15 -16 8 -37 15 -46 15 -9 0 -29 6 -45 14 -15 7 -50 24 -78 37 -63 30 -67 53 -25 145 17 38 40 87 50 109 9 22 25 61 35 87 26 71 36 75 103 49 31 -13 75 -29 97 -38 22 -8 55 -21 73 -29 18 -8 44 -14 58 -14 14 0 51 -7 82 -16 43 -13 82 -15 164 -12 97 5 111 8 143 32 19 15 35 36 35 47 0 32 -43 66 -106 84 -32 10 -70 22 -84 27 -14 6 -47 14 -75 18 -162 24 -326 80 -416 141 -101 68 -138 123 -170 250 -18 69 -19 89 -10 149 23 145 85 252 191 329 99 72 175 104 305 127 43 8 81 17 84 20 10 10 307 -2 371 -15z m740 -666 c17 -20 5 -45 -20 -45 -23 0 -35 22 -26 45 7 19 30 19 46 0z m-5062 -877 c3 -24 0 -28 -22 -28 -30 0 -40 13 -31 41 10 31 49 21 53 -13z m3112 -427 c0 -6 -4 -13 -10 -16 -5 -3 -10 -19 -10 -36 0 -19 -5 -29 -15 -29 -9 0 -15 9 -15 23 0 12 -4 29 -9 37 -6 8 -7 18 -5 22 7 11 64 10 64 -1z m1586 -60 c40 -24 77 -94 69 -130 -22 -100 -131 -163 -196 -113 -13 10 -32 21 -41 25 -12 4 -18 17 -18 35 0 16 -7 35 -15 42 -20 16 -19 36 3 58 9 11 25 33 34 51 28 52 106 67 164 32z m-4006 -91 c0 -11 -4 -20 -9 -20 -14 0 -23 18 -16 30 10 17 25 11 25 -10z m1705 -130 c30 -31 31 -27 -15 -82 -21 -25 -42 -22 -73 10 -34 35 -34 47 1 77 36 32 52 31 87 -5z m2340 -131 c4 -5 4 -22 0 -36 -5 -23 -8 -24 -23 -11 -9 8 -26 18 -36 22 -28 10 -6 26 46 35 4 0 10 -4 13 -10z m-115 -111 c0 -5 7 -16 15 -25 17 -16 16 -35 0 -34 -6 0 -12 8 -14 18 -2 10 -9 22 -17 26 -8 4 -14 14 -14 21 0 8 -7 17 -16 20 -8 3 -12 11 -9 17 7 11 55 -27 55 -43z m-4454 -19 c3 -6 1 -16 -5 -22 -6 -6 -11 -19 -11 -29 0 -10 -7 -18 -15 -18 -11 0 -15 11 -15 40 0 33 3 40 19 40 11 0 23 -5 27 -11z m524 -66 c0 -10 -20 -40 -20 -31 0 3 -3 13 -6 22 -4 11 -1 16 10 16 9 0 16 -3 16 -7z m3777 -75 c39 -38 42 -66 9 -97 l-25 -23 -34 26 c-20 15 -38 34 -41 42 -9 22 18 16 48 -11 34 -32 46 -32 46 1 0 15 -12 36 -30 53 -17 15 -27 30 -24 34 11 11 16 9 51 -25z m-4109 -51 c-3 -30 -1 -32 32 -35 52 -5 56 -17 19 -51 -33 -29 -79 -47 -51 -19 18 18 15 27 -13 38 -15 6 -25 17 -25 30 0 18 -3 19 -20 8 -37 -23 -34 3 4 37 44 39 59 37 54 -8z m1590 0 c3 -23 0 -27 -23 -27 -33 0 -45 28 -20 47 26 18 39 12 43 -20z m2406 -84 c3 -10 11 -26 18 -36 11 -15 10 -20 -4 -31 -10 -7 -18 -18 -18 -25 0 -11 -25 -15 -65 -11 -50 5 -71 61 -38 100 23 27 98 28 107 3z m-3814 -65 c0 -30 -32 -97 -47 -98 -6 0 -13 12 -15 28 -2 19 -9 28 -25 30 -13 2 -23 10 -23 18 0 18 56 19 63 2 3 -7 6 -4 6 8 2 38 41 50 41 12z m1008 -56 c17 -22 15 -67 -4 -86 -9 -9 -32 -16 -54 -16 -29 0 -41 6 -54 25 -17 26 -21 55 -7 55 5 0 11 9 14 19 8 33 79 35 105 3z m-914 -33 c5 -26 8 -29 21 -19 17 14 50 6 40 -10 -3 -5 -14 -10 -25 -10 -10 0 -20 -7 -24 -15 -3 -8 -14 -15 -25 -15 -11 0 -21 -6 -24 -12 -2 -7 -8 -10 -12 -5 -5 4 -3 13 3 19 7 7 12 31 12 53 0 64 22 73 34 14z m3560 19 c9 -33 7 -68 -3 -68 -4 0 -20 9 -34 20 -14 11 -35 20 -46 20 -12 0 -21 6 -21 15 0 18 41 20 58 3 10 -10 14 -8 18 10 8 28 20 28 28 0z m-1914 -112 c0 -8 -4 -18 -10 -21 -5 -3 -10 3 -10 14 0 12 5 21 10 21 6 0 10 -6 10 -14z m967 -71 l34 -34 -41 -43 -40 -43 -35 40 c-19 21 -35 42 -35 46 0 10 62 69 73 69 5 0 25 -16 44 -35z m623 -9 c0 -7 7 -19 15 -26 8 -7 15 -20 15 -30 0 -10 7 -21 16 -24 8 -3 12 -11 9 -17 -5 -7 -13 -5 -24 5 -10 9 -27 16 -39 16 -18 0 -22 -6 -22 -30 0 -20 -5 -30 -15 -30 -8 0 -15 6 -15 14 0 7 -7 19 -15 26 -19 16 -20 50 -1 50 8 0 18 -5 21 -11 5 -7 14 -4 26 7 13 12 16 21 9 28 -15 15 -12 36 5 36 8 0 15 -6 15 -14z m-2893 -32 c3 -9 -5 -26 -21 -43 -14 -15 -26 -35 -26 -44 0 -9 -7 -17 -15 -17 -8 0 -15 8 -15 19 0 10 7 24 15 31 8 7 15 25 15 41 0 22 5 29 20 29 11 0 23 -7 27 -16z m103 -90 c0 -30 25 -42 52 -25 28 17 31 10 13 -33 -17 -40 -34 -43 -50 -8 -11 25 -45 30 -45 7 0 -8 -7 -15 -15 -15 -20 0 -19 16 6 67 22 45 39 49 39 7z m2622 24 c-7 -7 -12 -20 -12 -30 0 -20 -4 -21 -37 -12 -27 8 -29 22 -5 40 23 18 71 19 54 2z m-135 -77 c3 -11 11 -22 19 -25 19 -7 18 -56 -1 -56 -9 0 -15 9 -15 25 0 14 -7 28 -15 31 -17 7 -21 44 -4 44 6 0 13 -9 16 -19z m151 -3 c-2 -13 -7 -23 -13 -23 -5 0 -11 10 -13 23 -2 15 2 22 13 22 11 0 15 -7 13 -22z m-2442 1 c7 -12 -12 -29 -33 -29 -7 0 -13 9 -13 20 0 22 34 28 46 9z m39 -28 c7 -12 -12 -24 -25 -16 -11 7 -4 25 10 25 5 0 11 -4 15 -9z m2165 -57 c0 -39 -4 -54 -14 -54 -8 0 -17 7 -20 16 -8 22 -26 7 -26 -22 0 -33 -13 -30 -55 12 -24 24 -34 42 -30 52 5 15 9 14 24 -6 19 -26 31 -20 31 15 0 27 7 29 32 7 19 -18 16 -21 33 32 10 32 25 1 25 -52z m-2210 23 c0 -5 -9 -11 -20 -14 -26 -7 -26 -29 1 -36 24 -6 17 -27 -10 -27 -26 0 -41 20 -41 55 0 42 16 57 46 43 13 -6 24 -15 24 -21z m375 -86 c3 -6 -2 -14 -12 -19 -15 -9 -16 -13 -4 -36 11 -21 12 -28 1 -41 -17 -20 -70 -20 -70 0 0 8 8 15 18 15 30 0 32 10 10 40 -11 16 -17 33 -14 39 9 13 63 15 71 2z m176 -47 c7 -20 6 -21 -20 -11 -46 17 -65 3 -58 -44 4 -34 3 -40 -11 -37 -25 5 -28 71 -5 97 25 28 83 24 94 -5z m1189 -2 c0 -30 23 -58 53 -63 34 -7 22 -24 -18 -27 -35 -3 -42 1 -58 27 -24 42 -23 91 3 91 15 0 20 -7 20 -28z m-1060 -44 c-2 -24 -2 -51 -1 -60 1 -20 31 -25 31 -5 0 17 40 80 46 74 8 -8 -17 -78 -35 -99 -18 -22 -29 -23 -53 -1 -25 22 -27 133 -2 133 12 0 15 -9 14 -42z m953 -6 c12 -61 5 -74 -40 -70 -37 3 -38 4 -44 53 -3 28 -4 54 -2 58 3 4 21 7 41 5 34 -3 37 -6 45 -46z m149 33 c0 -5 -5 -11 -11 -13 -6 -2 -11 4 -11 13 0 9 5 15 11 13 6 -2 11 -8 11 -13z m-864 -43 c2 -13 -1 -29 -7 -35 -6 -7 -6 -18 -1 -26 4 -8 6 -21 2 -29 -4 -12 -8 -12 -19 4 -11 15 -17 16 -32 7 -26 -16 -31 -8 -31 54 l0 54 43 -3 c35 -3 43 -7 45 -26z m167 18 c3 -6 -2 -13 -12 -16 -57 -17 -75 -45 -49 -73 11 -12 28 -21 38 -21 23 0 19 -24 -4 -28 -18 -4 -78 53 -78 74 0 30 43 74 71 74 15 0 31 -5 34 -10z m165 -5 c0 -10 -10 -15 -30 -15 -38 0 -41 -27 -3 -32 36 -4 41 -26 7 -30 -32 -4 -45 -28 -15 -28 11 0 23 -4 26 -10 4 -6 -8 -10 -28 -10 -23 0 -37 6 -41 16 -12 30 -6 93 10 108 20 21 74 21 74 1z m-690 -23 c0 -23 -48 -48 -64 -32 -7 7 -5 10 7 10 9 0 21 9 27 20 13 25 30 26 30 2z"/> <path d="M2587 5732 c-29 -32 -22 -60 17 -68 41 -7 56 0 56 27 0 53 -41 76 -73 41z"/> <path d="M4374 5366 c-14 -58 32 -89 69 -48 21 23 21 27 0 52 -25 28 -61 26 -69 -4z"/> <path d="M3128 5279 c-23 -25 -23 -46 1 -59 31 -16 51 -12 63 15 9 21 8 28 -7 45 -22 24 -35 24 -57 -1z"/> <path d="M3456 4264 c-21 -20 -20 -37 2 -57 24 -22 34 -21 55 3 22 25 21 33 -1 53 -23 21 -36 21 -56 1z"/> <path d="M937 3818 c-15 -15 -27 -31 -27 -36 0 -5 -11 -15 -25 -22 -14 -7 -25 -17 -25 -22 0 -5 -10 -22 -22 -38 -16 -22 -19 -33 -11 -41 14 -14 33 -3 33 18 0 16 32 60 81 109 18 17 30 37 27 45 -3 10 -12 6 -31 -13z"/> <path d="M715 3609 c-4 -12 -2 -26 3 -31 8 -8 10 -1 10 21 -1 36 -4 39 -13 10z"/> <path d="M767 3614 c-3 -4 -1 -16 4 -27 9 -16 13 -17 20 -6 13 21 11 39 -4 39 -8 0 -17 -3 -20 -6z"/> <path d="M1457 3359 c-21 -5 -58 -18 -83 -30 l-46 -20 6 -53 c7 -49 5 -54 -18 -69 -16 -11 -35 -15 -53 -11 -26 5 -30 2 -51 -45 -27 -63 -31 -210 -7 -268 8 -19 15 -41 15 -49 0 -15 56 -102 80 -124 65 -61 140 -90 230 -90 71 0 161 24 196 52 47 37 88 90 117 148 28 57 32 78 35 162 5 134 -20 208 -99 293 -62 65 -96 86 -172 104 -54 13 -96 13 -150 0z m9 -433 c3 -8 0 -24 -6 -36 l-12 -22 -21 20 c-17 17 -18 23 -7 36 16 20 39 21 46 2z"/> <path d="M1276 3248 c-23 -32 -20 -48 8 -48 17 0 26 7 30 25 12 46 -12 60 -38 23z"/> <path d="M2945 1510 c-8 -13 13 -50 29 -50 15 0 25 27 19 48 -5 14 -39 16 -48 2z"/> <path d="M4903 982 c-17 -2 -23 -10 -23 -27 0 -30 30 -48 65 -39 21 5 25 12 23 32 -3 27 -29 40 -65 34z"/> <path d="M2083 858 c-28 -14 -29 -22 -3 -46 31 -29 70 -18 70 19 0 16 -4 29 -9 29 -5 0 -15 2 -23 4 -7 3 -23 0 -35 -6z"/> <path d="M3797 651 c-8 -33 8 -47 39 -33 26 12 26 13 9 32 -23 25 -41 25 -48 1z"/> <path d="M2752 218 c6 -18 28 -21 28 -4 0 9 -7 16 -16 16 -9 0 -14 -5 -12 -12z"/> </g> </svg> 