<svg width="158" height="146" viewBox="0 0 158 146" fill="none" xmlns="http://www.w3.org/2000/svg">
<path d="M15.1093 140.717C15.1093 141.318 14.8951 141.829 14.4667 142.248C13.8469 142.84 12.9583 143.137 11.8007 143.137C10.8072 143.137 9.95957 142.904 9.25775 142.439C9.25775 142.594 9.24864 142.717 9.23041 142.809C9.18483 142.954 9.039 143.027 8.79291 143.027V140.129H9.32611C9.36257 140.612 9.46283 141.04 9.62689 141.414C10.0188 142.298 10.6979 142.74 11.664 142.74C11.9192 142.74 12.1516 142.704 12.3613 142.631C12.9446 142.412 13.2363 141.975 13.2363 141.318C13.2363 141.127 13.1953 140.94 13.1132 140.758C12.9218 140.375 12.4342 139.979 11.6503 139.568C10.7753 139.122 10.2831 138.862 10.1738 138.789C9.30788 138.251 8.87494 137.604 8.87494 136.848C8.87494 136.337 9.05267 135.895 9.40814 135.521C9.96413 134.947 10.7936 134.66 11.8964 134.66C12.735 134.66 13.5325 134.838 14.289 135.193C14.289 135.111 14.2936 135.038 14.3027 134.975C14.3482 134.801 14.4986 134.715 14.7538 134.715V137.189H14.2206C14.2115 136.697 14.093 136.273 13.8652 135.918C13.4915 135.353 12.9309 135.07 12.1835 135.07C11.9921 135.07 11.8098 135.098 11.6367 135.152C11.1171 135.326 10.8574 135.681 10.8574 136.219C10.8574 136.428 10.9029 136.629 10.9941 136.82C11.1855 137.212 11.664 137.609 12.4296 138.01C13.2682 138.456 13.7467 138.712 13.8652 138.775C14.6946 139.313 15.1093 139.96 15.1093 140.717ZM17.5549 137.545V137.189H18.4983V135.891L20.2346 135.604V137.189H22.0393V137.545H20.2346V141.688C20.2346 141.806 20.2437 141.92 20.262 142.029C20.3349 142.503 20.54 142.74 20.8772 142.74C20.9319 142.74 20.9866 142.736 21.0413 142.727C21.3967 142.654 21.6656 142.248 21.8479 141.51L22.217 141.564C22.1441 141.938 22.0439 142.239 21.9163 142.467C21.6519 142.923 21.1689 143.15 20.467 143.15C20.3577 143.15 20.2483 143.146 20.1389 143.137C19.0452 143.009 18.4983 142.285 18.4983 140.963V137.545H17.5549ZM27.4381 137.271C26.7089 137.299 26.3124 138.069 26.2486 139.582L27.1236 139.623C27.4882 139.641 27.7616 139.618 27.9439 139.555C28.1991 139.454 28.3267 139.19 28.3267 138.762C28.3176 137.786 28.0214 137.29 27.4381 137.271ZM29.9947 141.592C29.94 141.738 29.8671 141.879 29.776 142.016C29.3111 142.763 28.5455 143.137 27.4791 143.137C26.8775 143.137 26.3398 143.014 25.8658 142.768C24.8723 142.248 24.3756 141.327 24.3756 140.006C24.3756 139.195 24.5943 138.516 25.0318 137.969C25.606 137.267 26.4081 136.916 27.4381 136.916C28.0032 136.916 28.509 137.012 28.9556 137.203C29.7486 137.559 30.1451 138.124 30.1451 138.898C30.1451 139.053 30.1178 139.195 30.0631 139.322C29.8261 139.833 28.9739 140.065 27.5064 140.02L26.2486 139.979C26.2577 140.507 26.3033 140.963 26.3853 141.346C26.595 142.275 27.0644 142.74 27.7935 142.74C28.0214 142.74 28.2447 142.699 28.4635 142.617C29.0103 142.417 29.4114 142.038 29.6666 141.482L29.9947 141.592ZM34.9423 145.242H35.6395C35.6942 145.242 35.7489 145.247 35.8036 145.256C35.9221 145.274 35.9813 145.388 35.9813 145.598H32.4267V145.242C32.5451 145.242 32.6545 145.233 32.7548 145.215C33.0556 145.151 33.206 144.923 33.206 144.531V137.477H32.4267V137.121H34.8466L34.9149 138.434C35.0061 138.178 35.1428 137.941 35.3251 137.723C35.7808 137.185 36.3733 136.916 37.1024 136.916C37.5855 136.916 38.0139 137.057 38.3876 137.34C39.0803 137.859 39.4267 138.698 39.4267 139.855C39.4267 140.749 39.1988 141.496 38.7431 142.098C38.1962 142.79 37.4716 143.137 36.5692 143.137C35.8401 143.118 35.2978 142.909 34.9423 142.508V145.242ZM36.3778 137.572C36.1226 137.572 35.8856 137.677 35.6669 137.887C35.1747 138.37 34.9286 139.181 34.9286 140.32C34.9286 140.931 35.0106 141.446 35.1747 141.865C35.4208 142.467 35.7899 142.768 36.2821 142.768C37.1207 142.758 37.5445 141.856 37.5536 140.061C37.5536 138.42 37.1617 137.59 36.3778 137.572ZM50.2105 143H46.1089V142.631H47.2027V135.166H46.1089V134.797H50.2105V135.166H49.1167V142.631H49.8413C50.0328 142.649 50.1558 142.772 50.2105 143ZM55.3085 142.645C55.3631 142.645 55.4133 142.649 55.4588 142.658C55.5773 142.676 55.6366 142.79 55.6366 143H52.4374V142.645C52.5103 142.645 52.5786 142.64 52.6424 142.631C53.0344 142.585 53.2303 142.353 53.2303 141.934V137.477H52.4374V137.121H54.871L54.9393 138.188C55.0213 138.023 55.1307 137.864 55.2674 137.709C55.7323 137.18 56.2974 136.916 56.9627 136.916C57.1997 136.916 57.4276 136.952 57.6463 137.025C58.4484 137.308 58.8495 138.014 58.8495 139.145V142.645H59.3006C59.3553 142.645 59.41 142.649 59.4647 142.658C59.5832 142.676 59.6424 142.79 59.6424 143H56.4842V142.645C56.6118 142.645 56.7212 142.631 56.8124 142.604C57.0129 142.54 57.1131 142.316 57.1131 141.934V138.912C57.1131 138.785 57.104 138.661 57.0858 138.543C56.9947 137.932 56.6893 137.627 56.1698 137.627C56.0331 137.627 55.9009 137.659 55.7733 137.723C55.3085 137.951 55.0441 138.424 54.9803 139.145L54.9667 142.645H55.3085ZM63.797 142.111C63.797 142.275 63.7606 142.43 63.6877 142.576C63.5054 142.904 63.2183 143.068 62.8263 143.068C62.6714 143.068 62.5256 143.032 62.3888 142.959C62.0425 142.786 61.8693 142.503 61.8693 142.111C61.8693 141.956 61.9058 141.806 61.9787 141.66C62.161 141.314 62.4435 141.141 62.8263 141.141C62.9813 141.141 63.1317 141.177 63.2775 141.25C63.6239 141.441 63.797 141.729 63.797 142.111ZM77.2332 140.717C77.2332 141.318 77.019 141.829 76.5906 142.248C75.9708 142.84 75.0822 143.137 73.9246 143.137C72.9311 143.137 72.0835 142.904 71.3817 142.439C71.3817 142.594 71.3725 142.717 71.3543 142.809C71.3087 142.954 71.1629 143.027 70.9168 143.027V140.129H71.45C71.4865 140.612 71.5867 141.04 71.7508 141.414C72.1427 142.298 72.8218 142.74 73.7879 142.74C74.0431 142.74 74.2755 142.704 74.4852 142.631C75.0685 142.412 75.3602 141.975 75.3602 141.318C75.3602 141.127 75.3192 140.94 75.2371 140.758C75.0457 140.375 74.5581 139.979 73.7742 139.568C72.8992 139.122 72.407 138.862 72.2977 138.789C71.4318 138.251 70.9988 137.604 70.9988 136.848C70.9988 136.337 71.1766 135.895 71.532 135.521C72.088 134.947 72.9175 134.66 74.0203 134.66C74.8589 134.66 75.6564 134.838 76.4129 135.193C76.4129 135.111 76.4175 135.038 76.4266 134.975C76.4722 134.801 76.6225 134.715 76.8778 134.715V137.189H76.3445C76.3354 136.697 76.2169 136.273 75.9891 135.918C75.6154 135.353 75.0548 135.07 74.3074 135.07C74.116 135.07 73.9337 135.098 73.7606 135.152C73.241 135.326 72.9813 135.681 72.9813 136.219C72.9813 136.428 73.0268 136.629 73.118 136.82C73.3094 137.212 73.7879 137.609 74.5535 138.01C75.3921 138.456 75.8706 138.712 75.9891 138.775C76.8185 139.313 77.2332 139.96 77.2332 140.717ZM79.6788 137.545V137.189H80.6222V135.891L82.3585 135.604V137.189H84.1632V137.545H82.3585V141.688C82.3585 141.806 82.3677 141.92 82.3859 142.029C82.4588 142.503 82.6639 142.74 83.0011 142.74C83.0558 142.74 83.1105 142.736 83.1652 142.727C83.5206 142.654 83.7895 142.248 83.9718 141.51L84.341 141.564C84.268 141.938 84.1678 142.239 84.0402 142.467C83.7759 142.923 83.2928 143.15 82.591 143.15C82.4816 143.15 82.3722 143.146 82.2628 143.137C81.1691 143.009 80.6222 142.285 80.6222 140.963V137.545H79.6788ZM91.394 143.137C90.6648 143.091 90.2045 142.676 90.0131 141.893C89.9676 142.02 89.9083 142.143 89.8354 142.262C89.4708 142.845 88.9012 143.137 88.1264 143.137C87.8712 143.137 87.6388 143.105 87.4292 143.041C86.7182 142.813 86.3627 142.294 86.3627 141.482C86.3719 140.288 87.5476 139.669 89.8901 139.623V138.734C89.8901 138.47 89.8719 138.242 89.8354 138.051C89.7443 137.531 89.4845 137.271 89.0561 137.271C88.9285 137.271 88.8146 137.294 88.7143 137.34C88.5594 137.431 88.4318 137.659 88.3315 138.023C88.295 138.151 88.2677 138.242 88.2495 138.297C88.1127 138.68 87.8484 138.871 87.4565 138.871C87.3654 138.871 87.2788 138.857 87.1967 138.83C86.8595 138.739 86.6909 138.516 86.6909 138.16C86.6909 138.005 86.7319 137.859 86.8139 137.723C87.1329 137.185 87.9122 136.916 89.1518 136.916C89.4708 136.916 89.767 136.948 90.0405 137.012C91.0978 137.276 91.6264 137.978 91.6264 139.117V141.975C91.6264 142.412 91.7267 142.64 91.9272 142.658C92.1915 142.649 92.351 142.33 92.4057 141.701L92.7612 141.715C92.7338 141.997 92.6928 142.23 92.6381 142.412C92.4741 142.895 92.0594 143.137 91.394 143.137ZM88.8374 142.549C88.9012 142.549 88.9741 142.535 89.0561 142.508C89.4389 142.362 89.7169 141.97 89.8901 141.332V140.006C89.4799 140.024 89.1427 140.074 88.8784 140.156C88.3862 140.339 88.1401 140.73 88.1401 141.332C88.1492 142.125 88.3816 142.531 88.8374 142.549ZM97.6541 142.645C97.7088 142.645 97.7589 142.649 97.8045 142.658C97.923 142.676 97.9822 142.79 97.9822 143H94.783V142.645C94.8559 142.645 94.9243 142.64 94.9881 142.631C95.38 142.585 95.576 142.353 95.576 141.934V137.477H94.783V137.121H97.2166L97.2849 138.188C97.367 138.023 97.4763 137.864 97.6131 137.709C98.0779 137.18 98.643 136.916 99.3084 136.916C99.5454 136.916 99.7732 136.952 99.992 137.025C100.794 137.308 101.195 138.014 101.195 139.145V142.645H101.646C101.701 142.645 101.756 142.649 101.81 142.658C101.929 142.676 101.988 142.79 101.988 143H98.8299V142.645C98.9575 142.645 99.0668 142.631 99.158 142.604C99.3585 142.54 99.4588 142.316 99.4588 141.934V138.912C99.4588 138.785 99.4496 138.661 99.4314 138.543C99.3403 137.932 99.0349 137.627 98.5154 137.627C98.3787 137.627 98.2465 137.659 98.1189 137.723C97.6541 137.951 97.3898 138.424 97.326 139.145L97.3123 142.645H97.6541ZM109.027 143L108.836 141.715C108.79 141.833 108.736 141.947 108.672 142.057C108.262 142.777 107.633 143.137 106.785 143.137C106.275 143.137 105.81 142.982 105.391 142.672C104.652 142.134 104.283 141.3 104.283 140.17C104.283 139.258 104.52 138.502 104.994 137.9C105.541 137.235 106.247 136.902 107.113 136.902C107.761 136.902 108.316 137.103 108.781 137.504V134.469H107.537V134.113H110.518V142.631H111.147C111.21 142.631 111.265 142.635 111.311 142.645C111.42 142.672 111.475 142.79 111.475 143H109.027ZM106.156 140.006C106.156 140.352 106.179 140.667 106.225 140.949C106.38 141.988 106.776 142.508 107.414 142.508C107.606 142.508 107.783 142.458 107.947 142.357C108.522 141.984 108.809 141.113 108.809 139.746C108.809 139.436 108.79 139.145 108.754 138.871C108.599 137.859 108.193 137.354 107.537 137.354C107.355 137.354 107.182 137.399 107.018 137.49C106.443 137.837 106.156 138.675 106.156 140.006ZM122.559 134.66C123.589 134.66 124.487 134.938 125.253 135.494C126.319 136.278 126.852 137.422 126.852 138.926C126.852 140.165 126.428 141.186 125.581 141.988C124.751 142.754 123.731 143.137 122.518 143.137C121.452 143.137 120.522 142.831 119.729 142.221C118.699 141.419 118.184 140.302 118.184 138.871C118.184 137.622 118.617 136.602 119.483 135.809C120.322 135.043 121.347 134.66 122.559 134.66ZM122.559 142.74C122.979 142.74 123.329 142.649 123.612 142.467C124.341 142.002 124.706 140.799 124.706 138.857C124.706 138.037 124.637 137.349 124.501 136.793C124.209 135.635 123.548 135.057 122.518 135.057C122.208 135.057 121.93 135.111 121.684 135.221C120.782 135.604 120.331 136.839 120.331 138.926C120.331 140.02 120.445 140.867 120.673 141.469C121.001 142.316 121.63 142.74 122.559 142.74ZM136.093 142.645C136.157 142.645 136.211 142.649 136.257 142.658C136.366 142.686 136.421 142.799 136.421 143H133.987L133.919 141.879C133.892 141.934 133.864 141.988 133.837 142.043C133.409 142.772 132.784 143.137 131.964 143.137C130.679 143.128 130.027 142.385 130.009 140.908V137.477H129.216V137.121H131.745V141.141C131.745 141.268 131.754 141.391 131.773 141.51C131.864 142.12 132.169 142.426 132.689 142.426C132.825 142.426 132.962 142.394 133.099 142.33C133.554 142.102 133.814 141.633 133.878 140.922L133.892 137.477H133.222V137.121H135.628V142.645H136.093ZM138.579 137.545V137.189H139.523V135.891L141.259 135.604V137.189H143.064V137.545H141.259V141.688C141.259 141.806 141.268 141.92 141.286 142.029C141.359 142.503 141.564 142.74 141.902 142.74C141.956 142.74 142.011 142.736 142.066 142.727C142.421 142.654 142.69 142.248 142.872 141.51L143.242 141.564C143.169 141.938 143.068 142.239 142.941 142.467C142.676 142.923 142.193 143.15 141.492 143.15C141.382 143.15 141.273 143.146 141.163 143.137C140.07 143.009 139.523 142.285 139.523 140.963V137.545H138.579ZM147.259 142.111C147.259 142.275 147.223 142.43 147.15 142.576C146.968 142.904 146.681 143.068 146.289 143.068C146.134 143.068 145.988 143.032 145.851 142.959C145.505 142.786 145.332 142.503 145.332 142.111C145.332 141.956 145.368 141.806 145.441 141.66C145.623 141.314 145.906 141.141 146.289 141.141C146.444 141.141 146.594 141.177 146.74 141.25C147.086 141.441 147.259 141.729 147.259 142.111Z" fill="#109D58"/>
<path d="M58.041 95.5L58.541 95L59.541 95.5L60.041 95" stroke="black"/>
<path d="M56.041 94.5H60.041H60.541H61.041L60.041 96L58.041 100L57.541 101L56.541 103.5L56.041 94.5ZM56.041 94.5L55.041 97L55.541 94.5V94L54.041 98L50.541 105.5L44.041 122.5L43.041 125.5" stroke="#4D7FE9"/>
<path d="M82.541 128V127V123V120V118.5V117V116" stroke="#4D7FE9" stroke-width="6"/>
<path d="M70.041 113.5V126V127V127.5" stroke="#4D7FE9" stroke-width="6"/>
<path d="M20.1357 57.5164C20.9151 53.2295 22.1579 49.8589 27.2862 42.7922L77.5918 0.247539L77.8877 23.0066C73.9738 23.5783 71.9813 24.418 69.6374 25.7673C62.0325 29.7675 50.758 39.2411 38.2865 51.0746C33.6769 57.8313 33.4196 62.3362 36.6363 69.4798C39.4543 73.3289 41.6423 75.3639 47.0867 78.6824C56.6735 80.6214 61.8102 80.3837 70.1874 75.9216C70.1874 75.9216 89.4381 60.2772 93.8383 57.0563C98.2384 53.8353 107.039 61.6576 104.288 64.8785C101.538 68.0994 82.8379 83.2837 82.8379 83.2837C77.0752 87.2121 73.8238 88.6204 64.6874 91.5661C59.0518 92.4721 53.5397 92.6401 47.0867 91.5661C35.9775 88.4517 30.425 84.9787 23.4359 75.9216C19.5948 69.4303 19.9693 65.5111 20.1357 57.5164Z" fill="#E94436"/>
<path d="M38.541 66L42.041 72L71.041 27L63.541 32L58.041 36L38.541 66Z" fill="#4D7FE9"/>
<path d="M133.946 65.6252C133.167 69.976 131.924 73.3969 126.796 80.5691L76.4902 123.749L76.1943 100.65C80.1082 100.07 82.1007 99.2175 84.4446 97.8481C92.0495 93.7882 103.324 84.1732 115.796 72.1631C120.405 65.3055 120.662 60.7334 117.446 53.4832C114.628 49.5767 112.44 47.5113 106.995 44.1432C97.4085 42.1753 92.2718 42.4166 83.8946 46.9452C83.8946 46.9452 64.6438 62.8232 60.2436 66.0922C55.8435 69.3611 47.0432 61.4222 49.7934 58.1532C52.5436 54.8842 71.244 39.4732 71.244 39.4732C77.0067 35.4862 80.2582 34.0569 89.3946 31.0672C95.0302 30.1477 100.542 29.9772 106.995 31.0672C118.105 34.2281 123.657 37.753 130.646 46.9452C134.487 53.5334 134.113 57.5111 133.946 65.6252Z" fill="#FABC05"/>
<path d="M29.541 85.5L4.54095 125H45.541L51.3215 111.127M58.041 95L51.3215 111.127M51.3215 111.127L69.541 111H70.541V105V98.5M70.541 98.5V92M70.541 98.5H70.041H69.541H69.041H68.541H68.041H67.541" stroke="#4D7FE9" stroke-width="5"/>
<path d="M85.041 83.5L79.541 87.5L79.6026 87.7568L82.041 98.5L85.041 97V87.5V83.5Z" fill="#4D7FE9"/>
<path d="M79.541 99.5L82.041 98.5L79.6026 87.7568L79.541 95V99.5Z" fill="#4D7FE9"/>
<path d="M82.041 98.5L85.041 97V87.5V83.5L79.541 87.5L79.6026 87.7568M82.041 98.5L79.541 99.5V95L79.6026 87.7568M82.041 98.5L79.6026 87.7568" stroke="#4D7FE9"/>
<path d="M68.041 93H67.541V94V94.5V95V95.5V96V97V99.5V101.5V104V105V107.5V108" stroke="#4D7FE9"/>
<path d="M67.541 108V108.5M67.541 109.5V108.5M67.041 108L67.541 108.5M66.041 108.5H65.041H66.541H67.041H64.541H59.541H52.541" stroke="#4D7FE9"/>
<path d="M27.2856 84.4132L31.541 87L28.041 83L27.2856 84.4132Z" fill="#4D7FE9"/>
<path d="M103.541 83.5L96.0409 83.5L89.041 83.5001L89.041 87L89.041 89.5L96.5409 89.5L103.541 83.5Z" fill="#4D7FE9"/>
<path d="M106.041 128L106.041 98.5L99.5409 104L99.5409 116.5L99.5409 128L106.041 128Z" fill="#4D7FE9"/>
<path d="M157.541 128L153.781 122H129.541H104.541V128H157.541Z" fill="#4D7FE9"/>
<path d="M129.541 83.5L126.541 89.5L128.541 93L131.541 97.5L137.541 107L149.041 124.5L154.541 123L142.041 103.5L129.541 83.5Z" fill="#4D7FE9"/>
<path d="M123.51 83.5L116.541 89.5H121.541H126.541L129.541 83.5H123.51Z" fill="#4D7FE9"/>
<path d="M57.541 94.5L60.541 95L56.541 98.5L57.541 94.5Z" fill="#4D7FE9"/>
<path d="M73.215 90.0175V94.0175L67.041 94V92.5L73.215 90.0175Z" fill="#4D7FE9"/>
<path d="M106.041 58.5L114.541 71.5L115.541 67.5L116.541 64L114.541 61L105.541 47L102.041 46L97.541 45.5L106.041 58.5Z" fill="#4D7FE9"/>
<path d="M78.041 16L86.541 29.5H94.541L78.041 5.5V16Z" fill="#4D7FE9"/>
</svg>
