<svg width="1440" height="1024" viewBox="0 0 1440 1024" fill="none" xmlns="http://www.w3.org/2000/svg">
<g clip-path="url(#clip0_64_54)">
<rect width="1440" height="1024" fill="#F6F7F9"/>
<g clip-path="url(#clip1_64_54)">
<path d="M30.7544 107.599C30.7544 107.986 30.6161 108.315 30.3396 108.584C29.9395 108.965 29.3658 109.157 28.6185 109.157C27.9771 109.157 27.4299 109.007 26.9768 108.707C26.9768 108.807 26.971 108.886 26.9592 108.945C26.9298 109.039 26.8356 109.086 26.6768 109.086V107.22H27.021C27.0445 107.531 27.1092 107.807 27.2152 108.047C27.4682 108.616 27.9066 108.901 28.5302 108.901C28.695 108.901 28.845 108.878 28.9804 108.831C29.357 108.69 29.5453 108.409 29.5453 107.986C29.5453 107.863 29.5188 107.742 29.4658 107.625C29.3422 107.378 29.0275 107.123 28.5214 106.859C27.9565 106.572 27.6388 106.404 27.5682 106.357C27.0092 106.011 26.7297 105.594 26.7297 105.108C26.7297 104.779 26.8445 104.494 27.0739 104.253C27.4329 103.884 27.9683 103.699 28.6803 103.699C29.2217 103.699 29.7365 103.813 30.2249 104.042C30.2249 103.989 30.2278 103.942 30.2337 103.902C30.2631 103.79 30.3602 103.734 30.5249 103.734V105.327H30.1807C30.1748 105.01 30.0983 104.737 29.9513 104.509C29.71 104.145 29.3481 103.963 28.8656 103.963C28.7421 103.963 28.6244 103.981 28.5126 104.016C28.1772 104.128 28.0095 104.356 28.0095 104.703C28.0095 104.837 28.0389 104.967 28.0978 105.09C28.2213 105.342 28.5302 105.598 29.0245 105.856C29.5659 106.143 29.8748 106.308 29.9513 106.348C30.4867 106.695 30.7544 107.111 30.7544 107.599ZM32.3332 105.556V105.327H32.9423V104.491L34.0632 104.307V105.327H35.2282V105.556H34.0632V108.224C34.0632 108.3 34.069 108.373 34.0809 108.443C34.1279 108.748 34.2603 108.901 34.478 108.901C34.5133 108.901 34.5486 108.898 34.5839 108.893C34.8134 108.846 34.987 108.584 35.1047 108.109L35.3429 108.144C35.2959 108.385 35.2312 108.578 35.1488 108.725C34.9781 109.019 34.6663 109.165 34.2132 109.165C34.1426 109.165 34.072 109.162 34.0014 109.157C33.2953 109.074 32.9423 108.608 32.9423 107.757V105.556H32.3332ZM38.7135 105.38C38.2428 105.398 37.9868 105.894 37.9456 106.868L38.5105 106.894C38.7459 106.906 38.9224 106.891 39.0401 106.85C39.2048 106.785 39.2872 106.615 39.2872 106.34C39.2813 105.711 39.0901 105.392 38.7135 105.38ZM40.364 108.162C40.3287 108.256 40.2816 108.347 40.2228 108.435C39.9227 108.916 39.4284 109.157 38.74 109.157C38.3516 109.157 38.0045 109.077 37.6985 108.919C37.0571 108.584 36.7365 107.991 36.7365 107.141C36.7365 106.619 36.8777 106.181 37.1601 105.829C37.5308 105.377 38.0486 105.151 38.7135 105.151C39.0783 105.151 39.4049 105.213 39.6932 105.336C40.2051 105.565 40.4611 105.929 40.4611 106.427C40.4611 106.527 40.4435 106.619 40.4081 106.7C40.2551 107.029 39.705 107.179 38.7576 107.15L37.9456 107.123C37.9515 107.463 37.9809 107.757 38.0339 108.004C38.1692 108.602 38.4723 108.901 38.943 108.901C39.0901 108.901 39.2342 108.875 39.3755 108.822C39.7285 108.693 39.9874 108.449 40.1522 108.091L40.364 108.162ZM43.558 110.512H44.0081C44.0434 110.512 44.0787 110.515 44.114 110.521C44.1905 110.533 44.2288 110.606 44.2288 110.741H41.934V110.512C42.0104 110.512 42.0811 110.506 42.1458 110.495C42.34 110.453 42.4371 110.307 42.4371 110.054V105.513H41.934V105.283H43.4962L43.5403 106.129C43.5992 105.964 43.6874 105.811 43.8051 105.671C44.0993 105.325 44.4818 105.151 44.9525 105.151C45.2644 105.151 45.5409 105.242 45.7822 105.424C46.2294 105.758 46.453 106.299 46.453 107.044C46.453 107.619 46.3059 108.1 46.0117 108.488C45.6586 108.933 45.1908 109.157 44.6083 109.157C44.1376 109.144 43.7875 109.01 43.558 108.752V110.512ZM44.4847 105.574C44.32 105.574 44.167 105.641 44.0258 105.777C43.708 106.087 43.5492 106.61 43.5492 107.343C43.5492 107.736 43.6021 108.068 43.708 108.338C43.8669 108.725 44.1052 108.919 44.4229 108.919C44.9643 108.913 45.2379 108.332 45.2438 107.176C45.2438 106.12 44.9908 105.585 44.4847 105.574ZM53.4147 109.068H50.7668V108.831H51.4729V104.025H50.7668V103.787H53.4147V104.025H52.7086V108.831H53.1764C53.3 108.842 53.3794 108.922 53.4147 109.068ZM56.7058 108.84C56.7411 108.84 56.7735 108.842 56.8028 108.848C56.8793 108.86 56.9176 108.933 56.9176 109.068H54.8523V108.84C54.8994 108.84 54.9435 108.837 54.9847 108.831C55.2377 108.801 55.3642 108.652 55.3642 108.382V105.513H54.8523V105.283H56.4234L56.4675 105.97C56.5204 105.864 56.591 105.762 56.6793 105.662C56.9794 105.321 57.3442 105.151 57.7737 105.151C57.9267 105.151 58.0738 105.175 58.215 105.222C58.7328 105.404 58.9918 105.858 58.9918 106.586V108.84H59.283C59.3183 108.84 59.3536 108.842 59.3889 108.848C59.4654 108.86 59.5036 108.933 59.5036 109.068H57.4648V108.84C57.5472 108.84 57.6178 108.831 57.6767 108.813C57.8061 108.772 57.8708 108.628 57.8708 108.382V106.436C57.8708 106.355 57.8649 106.275 57.8532 106.199C57.7944 105.805 57.5972 105.609 57.2618 105.609C57.1736 105.609 57.0882 105.63 57.0059 105.671C56.7058 105.818 56.5351 106.122 56.4939 106.586L56.4852 108.84H56.7058ZM62.1857 108.496C62.1857 108.602 62.1622 108.701 62.1152 108.795C61.9975 109.007 61.8121 109.112 61.5591 109.112C61.4591 109.112 61.3649 109.089 61.2766 109.042C61.0531 108.931 60.9413 108.748 60.9413 108.496C60.9413 108.396 60.9648 108.3 61.0119 108.206C61.1296 107.983 61.3119 107.872 61.5591 107.872C61.6591 107.872 61.7562 107.895 61.8503 107.942C62.074 108.065 62.1857 108.25 62.1857 108.496ZM70.8597 107.599C70.8597 107.986 70.7214 108.315 70.4449 108.584C70.0448 108.965 69.4711 109.157 68.7238 109.157C68.0824 109.157 67.5352 109.007 67.0822 108.707C67.0822 108.807 67.0762 108.886 67.0645 108.945C67.0351 109.039 66.9409 109.086 66.7821 109.086V107.22H67.1263C67.1498 107.531 67.2145 107.807 67.3205 108.047C67.5735 108.616 68.0119 108.901 68.6355 108.901C68.8003 108.901 68.9503 108.878 69.0857 108.831C69.4623 108.69 69.6506 108.409 69.6506 107.986C69.6506 107.863 69.6241 107.742 69.5711 107.625C69.4475 107.378 69.1328 107.123 68.6267 106.859C68.0618 106.572 67.7441 106.404 67.6735 106.357C67.1145 106.011 66.835 105.594 66.835 105.108C66.835 104.779 66.9498 104.494 67.1792 104.253C67.5381 103.884 68.0736 103.699 68.7856 103.699C69.327 103.699 69.8418 103.813 70.3302 104.042C70.3302 103.989 70.3331 103.942 70.339 103.902C70.3684 103.79 70.4655 103.734 70.6303 103.734V105.327H70.286C70.2801 105.01 70.2036 104.737 70.0566 104.509C69.8153 104.145 69.4534 103.963 68.9709 103.963C68.8474 103.963 68.7297 103.981 68.6179 104.016C68.2825 104.128 68.1148 104.356 68.1148 104.703C68.1148 104.837 68.1442 104.967 68.2031 105.09C68.3266 105.342 68.6355 105.598 69.1298 105.856C69.6712 106.143 69.9801 106.308 70.0566 106.348C70.592 106.695 70.8597 107.111 70.8597 107.599ZM72.4385 105.556V105.327H73.0476V104.491L74.1685 104.307V105.327H75.3335V105.556H74.1685V108.224C74.1685 108.3 74.1744 108.373 74.1862 108.443C74.2332 108.748 74.3656 108.901 74.5833 108.901C74.6186 108.901 74.6539 108.898 74.6892 108.893C74.9187 108.846 75.0923 108.584 75.21 108.109L75.4483 108.144C75.4012 108.385 75.3365 108.578 75.2541 108.725C75.0835 109.019 74.7716 109.165 74.3186 109.165C74.2479 109.165 74.1773 109.162 74.1067 109.157C73.4006 109.074 73.0476 108.608 73.0476 107.757V105.556H72.4385ZM80.0015 109.157C79.5308 109.127 79.2336 108.86 79.11 108.356C79.0807 108.437 79.0424 108.517 78.9953 108.593C78.76 108.969 78.3922 109.157 77.892 109.157C77.7273 109.157 77.5773 109.136 77.442 109.095C76.983 108.948 76.7535 108.614 76.7535 108.091C76.7594 107.322 77.5184 106.924 79.0306 106.894V106.322C79.0306 106.152 79.0189 106.005 78.9953 105.882C78.9365 105.547 78.7688 105.38 78.4922 105.38C78.4099 105.38 78.3363 105.395 78.2716 105.424C78.1716 105.483 78.0892 105.63 78.0245 105.864C78.0009 105.946 77.9833 106.005 77.9715 106.04C77.8832 106.287 77.7126 106.41 77.4596 106.41C77.4008 106.41 77.3449 106.401 77.2919 106.384C77.0742 106.325 76.9653 106.181 76.9653 105.952C76.9653 105.852 76.9918 105.758 77.0447 105.671C77.2507 105.325 77.7538 105.151 78.554 105.151C78.76 105.151 78.9512 105.172 79.1277 105.213C79.8103 105.383 80.1515 105.835 80.1515 106.568V108.409C80.1515 108.69 80.2163 108.837 80.3457 108.848C80.5164 108.842 80.6193 108.637 80.6546 108.232L80.8841 108.241C80.8664 108.423 80.84 108.573 80.8047 108.69C80.6988 109.001 80.4311 109.157 80.0015 109.157ZM78.351 108.778C78.3922 108.778 78.4393 108.769 78.4922 108.752C78.7394 108.658 78.9188 108.405 79.0306 107.995V107.141C78.7658 107.152 78.5481 107.185 78.3775 107.237C78.0598 107.355 77.9009 107.607 77.9009 107.995C77.9068 108.505 78.0568 108.766 78.351 108.778ZM84.0428 108.84C84.0782 108.84 84.1105 108.842 84.1399 108.848C84.2164 108.86 84.2547 108.933 84.2547 109.068H82.1893V108.84C82.2364 108.84 82.2806 108.837 82.3217 108.831C82.5747 108.801 82.7013 108.652 82.7013 108.382V105.513H82.1893V105.283H83.7604L83.8045 105.97C83.8575 105.864 83.9281 105.762 84.0164 105.662C84.3164 105.321 84.6812 105.151 85.1108 105.151C85.2638 105.151 85.4109 105.175 85.5521 105.222C86.0699 105.404 86.3287 105.858 86.3287 106.586V108.84H86.6199C86.6554 108.84 86.6909 108.842 86.7258 108.848C86.8026 108.86 86.8407 108.933 86.8407 109.068H84.8019V108.84C84.8843 108.84 84.9548 108.831 85.0137 108.813C85.1431 108.772 85.2079 108.628 85.2079 108.382V106.436C85.2079 106.355 85.202 106.275 85.1902 106.199C85.1314 105.805 84.9342 105.609 84.5989 105.609C84.5106 105.609 84.4253 105.63 84.3429 105.671C84.0428 105.818 83.8722 106.122 83.831 106.586L83.8222 108.84H84.0428ZM91.3848 109.068L91.2615 108.241C91.2318 108.317 91.197 108.39 91.1557 108.461C90.891 108.925 90.4849 109.157 89.9375 109.157C89.6082 109.157 89.308 109.057 89.0375 108.857C88.5605 108.511 88.3223 107.974 88.3223 107.246C88.3223 106.659 88.4753 106.172 88.7813 105.785C89.1344 105.357 89.5902 105.142 90.1492 105.142C90.5675 105.142 90.9258 105.272 91.226 105.53V103.576H90.4229V103.347H92.3474V108.831H92.7534C92.7941 108.831 92.8296 108.833 92.8593 108.84C92.9297 108.857 92.9652 108.933 92.9652 109.068H91.3848ZM89.5314 107.141C89.5314 107.364 89.5463 107.566 89.576 107.748C89.676 108.417 89.9317 108.752 90.3435 108.752C90.4675 108.752 90.5817 108.719 90.6876 108.654C91.0588 108.414 91.2441 107.854 91.2441 106.973C91.2441 106.774 91.2318 106.586 91.2086 106.41C91.1085 105.758 90.8464 105.433 90.4229 105.433C90.3054 105.433 90.1938 105.462 90.0879 105.521C89.7167 105.744 89.5314 106.284 89.5314 107.141ZM100.121 103.699C100.786 103.699 101.365 103.878 101.86 104.236C102.548 104.741 102.892 105.477 102.892 106.445C102.892 107.243 102.618 107.901 102.072 108.417C101.536 108.91 100.877 109.157 100.094 109.157C99.406 109.157 98.8057 108.96 98.2937 108.567C97.6288 108.051 97.2963 107.331 97.2963 106.41C97.2963 105.606 97.5759 104.949 98.1349 104.439C98.6765 103.945 99.3383 103.699 100.121 103.699ZM100.121 108.901C100.392 108.901 100.618 108.842 100.8 108.725C101.271 108.426 101.507 107.651 101.507 106.401C101.507 105.873 101.462 105.43 101.374 105.072C101.186 104.327 100.759 103.954 100.094 103.954C99.8941 103.954 99.7146 103.989 99.5558 104.06C98.9735 104.307 98.6824 105.102 98.6824 106.445C98.6824 107.15 98.7559 107.695 98.9031 108.083C99.1149 108.628 99.5209 108.901 100.121 108.901ZM108.858 108.84C108.899 108.84 108.934 108.842 108.964 108.848C109.034 108.866 109.07 108.939 109.07 109.068H107.498L107.454 108.347C107.437 108.382 107.419 108.417 107.401 108.452C107.125 108.922 106.722 109.157 106.192 109.157C105.363 109.151 104.942 108.672 104.93 107.722V105.513H104.418V105.283H106.051V107.872C106.051 107.953 106.057 108.033 106.069 108.109C106.128 108.502 106.325 108.699 106.66 108.699C106.748 108.699 106.837 108.678 106.925 108.637C107.219 108.49 107.387 108.188 107.428 107.731L107.437 105.513H107.004V105.283H108.558V108.84H108.858ZM110.463 105.556V105.327H111.072V104.491L112.193 104.307V105.327H113.358V105.556H112.193V108.224C112.193 108.3 112.199 108.373 112.21 108.443C112.257 108.748 112.39 108.901 112.608 108.901C112.643 108.901 112.678 108.898 112.714 108.893C112.943 108.846 113.117 108.584 113.234 108.109L113.473 108.144C113.426 108.385 113.361 108.578 113.279 108.725C113.108 109.019 112.796 109.165 112.343 109.165C112.272 109.165 112.202 109.162 112.131 109.157C111.425 109.074 111.072 108.608 111.072 107.757V105.556H110.463ZM116.066 108.496C116.066 108.602 116.043 108.701 115.996 108.795C115.878 109.007 115.693 109.112 115.44 109.112C115.34 109.112 115.246 109.089 115.157 109.042C114.934 108.931 114.822 108.748 114.822 108.496C114.822 108.396 114.845 108.3 114.893 108.206C115.01 107.983 115.193 107.872 115.44 107.872C115.54 107.872 115.637 107.895 115.731 107.942C115.955 108.065 116.066 108.25 116.066 108.496Z" fill="#109D58"/>
<path d="M58.4697 78.4863L58.7925 78.1644L59.4381 78.4863L59.7609 78.1644" stroke="black"/>
<path d="M57.1785 77.8424H59.7608H60.0836H60.4064L59.7608 78.8082L58.4697 81.3835L58.1469 82.0274L57.5013 83.6369L57.1785 77.8424ZM57.1785 77.8424L56.533 79.452L56.8558 77.8424V77.5205L55.8874 80.0959L53.6279 84.9246L49.4317 95.8698L48.7861 97.8013" stroke="#4D7FE9"/>
<path d="M74.2861 99.411V98.7671V96.1918V94.2603V93.2945V92.3288V91.6849" stroke="#4D7FE9" stroke-width="6"/>
<path d="M66.2168 90.0753V98.1233V98.7671V99.089" stroke="#4D7FE9" stroke-width="6"/>
<path d="M33.9987 54.0311C34.5018 51.271 35.3041 49.1009 38.6148 44.5511L71.0906 17.1594L71.2816 31.8125C68.7549 32.1805 67.4686 32.7212 65.9554 33.5899C61.046 36.1654 53.7675 42.2648 45.7163 49.8836C42.7404 54.2338 42.5743 57.1343 44.6509 61.7336C46.4702 64.2117 47.8827 65.522 51.3974 67.6585C57.5863 68.9069 60.9024 68.7539 66.3105 65.881C66.3105 65.881 78.7382 55.8086 81.5788 53.7349C84.4194 51.6611 90.1008 56.6973 88.3248 58.7711C86.5495 60.8448 74.4773 70.621 74.4773 70.621C70.7571 73.1502 68.6581 74.057 62.7599 75.9535C59.1217 76.5368 55.5633 76.645 51.3974 75.9535C44.2256 73.9483 40.6411 71.7123 36.1292 65.881C33.6495 61.7017 33.8912 59.1784 33.9987 54.0311Z" fill="#E94436"/>
<path d="M45.8809 59.4931L48.1404 63.3561L66.8619 34.3835L62.0201 37.6027L58.4695 40.1781L45.8809 59.4931Z" fill="#4D7FE9"/>
<path d="M107.471 59.2518C106.968 62.053 106.166 64.2555 102.855 68.8732L70.3793 96.674L70.1882 81.802C72.7149 81.4286 74.0012 80.8797 75.5144 79.9981C80.4239 77.3842 87.7024 71.1937 95.7539 63.4612C98.7293 59.046 98.8952 56.1023 96.8191 51.4344C94.9999 48.9192 93.5874 47.5895 90.0722 45.4209C83.8835 44.1539 80.5674 44.3093 75.1593 47.225C75.1593 47.225 62.7316 57.4478 59.891 59.5525C57.0504 61.6571 51.3692 56.5458 53.1446 54.4411C54.9201 52.3364 66.9925 42.4142 66.9925 42.4142C70.7127 39.8473 72.8118 38.927 78.71 37.0022C82.3481 36.4101 85.9064 36.3004 90.0722 37.0022C97.2445 39.0373 100.829 41.3067 105.341 47.225C107.82 51.4667 107.579 54.0277 107.471 59.2518Z" fill="#FABC05"/>
<path d="M40.0709 72.048L23.9316 97.4795H50.4L54.1317 88.5475M54.1317 88.5475L58.4697 78.1644M54.1317 88.5475L65.8937 88.4658H66.5393V84.6028V80.4178M66.5393 80.4178V76.2329M66.5393 80.4178H66.2165H65.8937H65.5709H65.2481H64.9253H64.6026" stroke="#4D7FE9" stroke-width="5"/>
<path d="M75.9002 70.7603L72.3496 73.3356L72.3894 73.5009L73.9635 80.4178L75.9002 79.452V73.3356V70.7603Z" fill="#4D7FE9"/>
<path d="M72.3496 81.0617L73.9635 80.4178L72.3894 73.501L72.3496 78.1644V81.0617Z" fill="#4D7FE9"/>
<path d="M73.9635 80.4178L75.9002 79.452V73.3356V70.7603L72.3496 73.3356L72.3894 73.5009M73.9635 80.4178L72.3496 81.0616V78.1644L72.3894 73.5009M73.9635 80.4178L72.3894 73.5009" stroke="#4D7FE9"/>
<path d="M64.9253 76.8767H64.6025V77.5205V77.8425V78.1644V78.4863V78.8082V79.4521V81.0616V82.3493V83.9589V84.6027V86.2123V86.5342" stroke="#4D7FE9"/>
<path d="M64.6025 86.5343V86.8562M64.6025 86.8562V87.5001M64.6025 86.8562L64.2797 86.5343M63.6341 86.8562H62.9886H63.9569H64.2797H62.6658H59.4379H54.9189" stroke="#4D7FE9"/>
<path d="M38.6152 71.3482L41.3624 73.0137L39.1029 70.4384L38.6152 71.3482Z" fill="#4D7FE9"/>
<path d="M87.8432 70.7603H83.0013L78.4824 70.7603V73.0137V74.6233H83.3241L87.8432 70.7603Z" fill="#4D7FE9"/>
<path d="M89.457 99.411V80.4178L85.2607 83.9589V92.0069V99.411H89.457Z" fill="#4D7FE9"/>
<path d="M122.703 99.411L120.276 95.548H104.628H88.4883V99.411H122.703Z" fill="#4D7FE9"/>
<path d="M104.628 70.7603L102.691 74.6233L103.983 76.8767L105.919 79.774L109.793 85.8904L117.217 97.1575L120.767 96.1918L112.698 83.637L104.628 70.7603Z" fill="#4D7FE9"/>
<path d="M100.734 70.7603L96.2354 74.6233H99.4632H102.691L104.628 70.7603H100.734Z" fill="#4D7FE9"/>
<path d="M58.1465 77.8424L60.0833 78.1643L57.501 80.4177L58.1465 77.8424Z" fill="#4D7FE9"/>
<path d="M68.265 74.9564V77.5318L64.2793 77.5205V76.5547L68.265 74.9564Z" fill="#4D7FE9"/>
<path d="M89.4571 54.6644L94.9444 63.0343L95.59 60.4589L96.2355 58.2055L94.9444 56.274L89.1343 47.2603L86.8748 46.6165L83.9697 46.2946L89.4571 54.6644Z" fill="#4D7FE9"/>
<path d="M71.3809 27.3014L76.8682 35.9931H82.0328L71.3809 20.5411V27.3014Z" fill="#4D7FE9"/>
</g>
<ellipse cx="1441.5" cy="135.5" rx="69.5" ry="88.5" fill="#FABC05" fill-opacity="0.88"/>
<path d="M101.574 756.026L111.232 840.903L209.751 867.629L117.202 893.36L126.861 978.236L60.0034 909.262L-32.5455 934.992L18.6834 866.633L-48.1738 797.659L50.3446 824.385L101.574 756.026Z" fill="#109D58" fill-opacity="0.84"/>
<path d="M9.5 623C195.084 569.101 301 871.796 443 756.613C585 641.43 419.372 926.594 766.5 1023" stroke="black" stroke-opacity="0.5"/>
<path d="M-37 624.494C148.584 570.595 254.5 873.29 396.5 758.107C538.5 642.924 372.872 928.088 720 1024.49" stroke="black" stroke-opacity="0.5"/>
<path d="M1268 933.596L1423.78 884.55L1381.36 1035.39L1268 933.596Z" fill="#E93736"/>
</g>
<defs>
<clipPath id="clip0_64_54">
<rect width="1440" height="1024" fill="white"/>
</clipPath>
<clipPath id="clip1_64_54">
<rect width="102" height="94" fill="white" transform="translate(21 17)"/>
</clipPath>
</defs>
</svg>
